<?xml version="1.0" standalone="no"?><!DOCTYPE svg PUBLIC "-//W3C//DTD SVG 1.1//EN" "http://www.w3.org/Graphics/SVG/1.1/DTD/svg11.dtd"><svg class="icon" width="200px" height="200.00px" viewBox="0 0 1024 1024" version="1.1" xmlns="http://www.w3.org/2000/svg"><path fill="#1afa29" d="M380.3 336.9l114.1-208.7c0.6-0.1 1-0.3 1.4-0.4-2.9-1.3 4-1.3 0 0 0.4 0.2 1 0.4 1.9 0.6l112.5 208c3.8 7 10.5 11.9 18.3 13.5L877 398.4l-92.4 100.5c-7.8 8.5-6.2 21.9 3.4 28.3 7.6 5.1 17.8 3.9 24.1-2.8l104-111c8.7-9.2 10.7-23 4.8-34.2 0-0.1-0.1-0.2-0.1-0.3-4.3-8.2-12.2-14-21.3-15.7l-241.4-46.3c-7.5-1.4-13.9-6.1-17.6-12.8L515.2 77c-3.9-7.1-11.3-11.6-19.5-11.8h-0.2c-8.4-0.1-16.1 4.5-20.2 11.8l-124 225c-4.4 8-12.2 13.7-21.2 15.4L89.9 363.5c-8.7 1.7-16.4 7.1-20.6 15 0 0 0 0.1-0.1 0.1-6 11.2-3.9 25.1 4.8 34.3l168 179.4c5.6 6 8.3 14.3 7.3 22.5L219 857.1c-1.4 11.2 3.4 22.4 12.7 28.7 0.1 0 0.1 0.1 0.2 0.1 9.1 6.2 21 6.8 30.8 1.8l249.8-125.8c9.5-4.8 13.6-16 9.6-25.8-4.5-10.8-17.1-15.6-27.6-10.5l-232 112.9L294 584.8c0.9-7.5-1.7-15-7.1-20.4L119.7 399.7l242.8-49.6c7.6-1.6 14.1-6.4 17.8-13.2z m539 423.3H791.2V632.1c0-10.9-9.5-19.8-21.2-19.8s-21.2 8.9-21.2 19.8v128.1H620.7c-10.9 0-19.8 9.5-19.8 21.2s8.9 21.2 19.8 21.2h128.1v128.1c0 10.9 9.5 19.8 21.2 19.8s21.2-8.9 21.2-19.8V802.6h128.1c10.9 0 19.8-9.5 19.8-21.2s-8.9-21.2-19.8-21.2z" /></svg>