<?xml version="1.0" standalone="no"?><!DOCTYPE svg PUBLIC "-//W3C//DTD SVG 1.1//EN" "http://www.w3.org/Graphics/SVG/1.1/DTD/svg11.dtd"><svg class="icon" width="200px" height="200.00px" viewBox="0 0 1024 1024" version="1.1" xmlns="http://www.w3.org/2000/svg"><path fill="#1afa29" d="M128 0l896 0 0 64-896 0 0-64ZM576 448l448 0 0 64-448 0 0-64ZM640 960l384 0 0 64-384 0 0-64ZM320 704l249.6 0C556.8 569.6 454.4 467.2 320 454.4L320 704zM256 768 256 454.4c-140.8 19.2-256 134.4-256 281.6C0 896 128 1024 288 1024c147.2 0 268.8-115.2 281.6-256L256 768z" /></svg>