<?xml version="1.0" standalone="no"?><!DOCTYPE svg PUBLIC "-//W3C//DTD SVG 1.1//EN" "http://www.w3.org/Graphics/SVG/1.1/DTD/svg11.dtd"><svg class="icon" width="200px" height="200.00px" viewBox="0 0 1024 1024" version="1.1" xmlns="http://www.w3.org/2000/svg"><path fill="#1afa29" d="M833.877333 395.264L380.416 133.461333a136.533333 136.533333 0 0 0-204.8 118.272v523.605334a136.533333 136.533333 0 0 0 204.8 118.101333L833.877333 631.466667a136.533333 136.533333 0 0 0 0-236.373334z m-34.133333 177.322667L346.282667 834.389333a68.266667 68.266667 0 0 1-102.4-59.050666V251.733333a68.266667 68.266667 0 0 1 34.133333-59.221333 68.266667 68.266667 0 0 1 68.266667 0l453.461333 261.802667a68.266667 68.266667 0 0 1 0 118.272z" /></svg>