<?xml version="1.0" standalone="no"?><!DOCTYPE svg PUBLIC "-//W3C//DTD SVG 1.1//EN" "http://www.w3.org/Graphics/SVG/1.1/DTD/svg11.dtd"><svg class="icon" width="200px" height="200.00px" viewBox="0 0 1024 1024" version="1.1" xmlns="http://www.w3.org/2000/svg"><path fill="#1afa29" d="M843.776 231.424c-3.072-20.48-20.48-37.888-40.96-40.96-95.232-16.384-191.488-24.576-285.696-24.576-95.232 0-191.488 8.192-285.696 24.576-20.48 3.072-37.888 20.48-40.96 40.96-18.432 94.208-26.624 190.464-26.624 285.696s8.192 191.488 24.576 285.696c3.072 22.528 20.48 38.912 41.984 41.984 95.232 16.384 191.488 24.576 285.696 24.576 97.28 0 193.536-9.216 284.672-25.6 20.48-3.072 37.888-20.48 40.96-40.96 16.384-95.232 24.576-191.488 24.576-285.696 2.048-95.232-6.144-191.488-22.528-285.696z m-40.96 565.248c-1.024 4.096-4.096 7.168-8.192 8.192-177.152 32.768-369.664 33.792-557.056 1.024-4.096-1.024-8.192-4.096-8.192-8.192-16.384-92.16-24.576-186.368-24.576-279.552 0-92.16 8.192-186.368 24.576-279.552 1.024-4.096 4.096-7.168 8.192-8.192 92.16-16.384 186.368-24.576 279.552-24.576s186.368 8.192 279.552 24.576c4.096 1.024 7.168 4.096 8.192 8.192 16.384 92.16 24.576 186.368 24.576 279.552-2.048 91.136-10.24 185.344-26.624 278.528z" /></svg>