<?xml version="1.0" standalone="no"?><!DOCTYPE svg PUBLIC "-//W3C//DTD SVG 1.1//EN" "http://www.w3.org/Graphics/SVG/1.1/DTD/svg11.dtd"><svg class="icon" width="200px" height="200.00px" viewBox="0 0 1024 1024" version="1.1" xmlns="http://www.w3.org/2000/svg"><path fill="#00ff00" d="M882.423815 790.749283c-16.257552 0-29.353914 13.096362-29.353914 29.353914v32.740904h-32.740904c-16.257552 0-29.353914 13.096362-29.353914 29.353914s13.096362 29.353914 29.353914 29.353914h62.094818c16.257552 0 29.353914-13.096362 29.353914-29.353914v-62.094818c0-16.031753-13.322161-29.353914-29.353914-29.353914zM697.042558 852.844101h-123.286439c-16.257552 0-29.353914 13.096362-29.353914 29.353914s13.096362 29.353914 29.353914 29.353914h123.286439c16.257552 0 29.353914-13.096362 29.353914-29.353914s-13.322161-29.353914-29.353914-29.353914zM141.576185 479.597795c16.257552 0 29.353914-13.096362 29.353914-29.353914v-123.286439c0-16.257552-13.096362-29.353914-29.353914-29.353914s-29.353914 13.096362-29.353914 29.353914v123.286439c0 16.257552 13.322161 29.353914 29.353914 29.353914zM141.576185 233.024917c16.257552 0 29.353914-13.096362 29.353914-29.353914v-32.740904h32.740904c16.257552 0 29.353914-13.096362 29.353914-29.353914s-13.096362-29.353914-29.353914-29.353914H141.576185c-16.257552 0-29.353914 13.096362-29.353914 29.353914v62.094818c0 16.257552 13.322161 29.353914 29.353914 29.353914zM327.183241 170.930099h123.286439c16.257552 0 29.353914-13.096362 29.353914-29.353914s-13.096362-29.353914-29.353914-29.353914H327.183241c-16.257552 0-29.353914 13.096362-29.353914 29.353914s13.096362 29.353914 29.353914 29.353914zM573.53032 170.930099h123.286439c16.257552 0 29.353914-13.096362 29.353914-29.353914s-13.096362-29.353914-29.353914-29.353914H573.53032c-16.257552 0-29.353914 13.096362-29.353914 29.353914s13.322161 29.353914 29.353914 29.353914zM882.423815 112.222271h-62.094818c-16.257552 0-29.353914 13.096362-29.353914 29.353914s13.096362 29.353914 29.353914 29.353914h32.740904v32.740904c0 16.257552 13.096362 29.353914 29.353914 29.353914s29.353914-13.096362 29.353914-29.353914v-62.094818c0-16.031753-13.322161-29.353914-29.353914-29.353914zM882.423815 544.176406c-16.257552 0-29.353914 13.096362-29.353914 29.353914V696.816759c0 16.257552 13.096362 29.353914 29.353914 29.353914s29.353914-13.096362 29.353914-29.353914v-123.286439c0-16.031753-13.322161-29.353914-29.353914-29.353914zM882.423815 297.603528c-16.257552 0-29.353914 13.096362-29.353914 29.353914v123.286439c0 16.257552 13.096362 29.353914 29.353914 29.353914s29.353914-13.096362 29.353914-29.353914v-123.286439c0-16.031753-13.322161-29.353914-29.353914-29.353914zM512.1129 482.533186h-370.310915c-16.257552 0-29.353914 13.096362-29.353914 29.353914v370.310915c0 16.257552 13.096362 29.353914 29.353914 29.353914h370.310915c16.257552 0 29.353914-13.096362 29.353914-29.353914v-370.310915c0-16.031753-13.322161-29.353914-29.353914-29.353914z m-29.353914 370.310915H171.155899v-311.603087h311.603087v311.603087zM815.135612 330.344432v-92.12613c0-16.257552-13.096362-29.353914-29.353914-29.353914h-92.12613c-16.257552 0-29.353914 13.096362-29.353914 29.353914s13.096362 29.353914 29.353914 29.353914h21.225138l-112.448071 112.448071v-21.225138c0-16.257552-13.096362-29.353914-29.353914-29.353914s-29.353914 13.096362-29.353914 29.353914v92.12613c0 16.257552 13.096362 29.353914 29.353914 29.353914h92.12613c16.257552 0 29.353914-13.096362 29.353914-29.353914s-13.096362-29.353914-29.353914-29.353914h-21.225138l112.448071-112.448071v21.225138c0 16.257552 13.096362 29.353914 29.353914 29.353914s29.353914-13.096362 29.353914-29.353914z" /></svg>
