<?xml version="1.0" standalone="no"?><!DOCTYPE svg PUBLIC "-//W3C//DTD SVG 1.1//EN" "http://www.w3.org/Graphics/SVG/1.1/DTD/svg11.dtd"><svg class="icon" width="200px" height="200.00px" viewBox="0 0 1024 1024" version="1.1" xmlns="http://www.w3.org/2000/svg"><path fill="#ff0000" d="M93.866667 322.773333a8.533333 8.533333 0 0 1 6.613333 3.114667c5.589333 6.848 10.261333 12.373333 14.058667 16.64 97.664 109.056 239.552 177.706667 397.482666 177.706667 162.752 0 308.48-72.917333 406.314667-187.84 1.493333-1.792 3.242667-3.882667 5.184-6.272a8.533333 8.533333 0 0 1 15.146667 5.376v9.813333l0.021333 8.32v51.754667a8.533333 8.533333 0 0 1-2.517333 6.037333 599.893333 599.893333 0 0 1-99.584 81.002667l82.474666 98.261333a8.533333 8.533333 0 0 1-1.066666 12.010667l-35.946667 30.165333a8.533333 8.533333 0 0 1-12.010667-1.045333l-89.813333-107.050667a593.045333 593.045333 0 0 1-145.450667 50.837333l44.074667 121.024a8.533333 8.533333 0 0 1-5.098667 10.944l-44.096 16.042667a8.533333 8.533333 0 0 1-10.944-5.098667l-48.448-133.098666a604.586667 604.586667 0 0 1-130.88-1.557334L390.4 714.517333a8.533333 8.533333 0 0 1-10.944 5.12l-44.096-16.064a8.533333 8.533333 0 0 1-5.12-10.944l45.184-124.096a593.066667 593.066667 0 0 1-131.584-47.744l-89.813333 107.029334a8.533333 8.533333 0 0 1-12.032 1.066666L106.026667 598.677333a8.533333 8.533333 0 0 1-1.066667-12.010666l82.474667-98.261334a599.872 599.872 0 0 1-80.981334-62.976c-4.352-4.032-10.56-10.026667-18.602666-18.005333A8.533333 8.533333 0 0 1 85.333333 401.386667v-70.101334c0-4.693333 3.84-8.533333 8.533334-8.533333z"  /></svg>