<?xml version="1.0" standalone="no"?><!DOCTYPE svg PUBLIC "-//W3C//DTD SVG 1.1//EN" "http://www.w3.org/Graphics/SVG/1.1/DTD/svg11.dtd"><svg class="icon" width="200px" height="200.00px" viewBox="0 0 1024 1024" version="1.1" xmlns="http://www.w3.org/2000/svg"><path fill="#ff0000" d="M669.184 278.1696l-4.8128 5.0176a107.4176 107.4176 0 0 1-77.6192 33.3824H488.448c-29.3376 0-57.2928-12.1344-77.568-33.3824l-4.8128-5.0176-131.072 136.96 44.032 46.0288a74.752 74.752 0 0 1 82.944 74.5472v219.4944h271.3088v-219.4944a74.752 74.752 0 0 1 82.8416-74.5472l44.032-46.08-130.9696-136.9088zM337.92 587.6224v-51.9168a10.8032 10.8032 0 0 0-14.08-10.496 42.8032 42.8032 0 0 1-43.3152-11.776l-62.72-65.536A47.4624 47.4624 0 0 1 204.8 415.1296c0-12.288 4.6592-24.064 13.0048-32.768l156.8768-163.9936A43.4176 43.4176 0 0 1 406.016 204.8c11.776 0 23.04 4.864 31.3344 13.568l19.712 20.5824c8.2944 8.704 19.6096 13.6192 31.3856 13.6192h98.2528c11.776 0 23.04-4.9152 31.3344-13.6192l19.712-20.5824A43.4176 43.4176 0 0 1 669.184 204.8c11.776 0 23.04 4.864 31.3344 13.568l156.8768 163.9424c8.3456 8.704 13.0048 20.48 13.0048 32.768s-4.6592 24.1152-13.0048 32.8192l-62.72 65.536a42.8032 42.8032 0 0 1-43.3152 11.776 10.8032 10.8032 0 0 0-14.08 10.496v51.9168a53.3504 53.3504 0 0 1 0 0.1024v185.088c0 25.4976-19.968 46.3872-44.3904 46.3872H382.3104c-24.4224 0-44.3904-20.8896-44.3904-46.3872V587.776a106.496 106.496 0 0 0 0-0.1024z" /></svg>