<?xml version="1.0" standalone="no"?><!DOCTYPE svg PUBLIC "-//W3C//DTD SVG 1.1//EN" "http://www.w3.org/Graphics/SVG/1.1/DTD/svg11.dtd"><svg class="icon" width="200px" height="200.00px" viewBox="0 0 1024 1024" version="1.1" xmlns="http://www.w3.org/2000/svg"><path fill="#1afa29" d="M512.014222 906.666667C344.647111 906.666667 35.555556 780.558222 35.555556 600.888889c0-179.683556 309.091556-305.777778 476.458666-305.777778 167.338667 0 476.444444 126.094222 476.444445 305.777778 0 179.669333-309.105778 305.777778-476.444445 305.777778z m0-554.666667C353.934222 352 92.444444 468.323556 92.444444 600.888889c0 132.551111 261.504 248.888889 419.569778 248.888889 158.051556 0 419.555556-116.337778 419.555556-248.888889 0-132.565333-261.504-248.888889-419.555556-248.888889z"  /><path fill="#1afa29" d="M512.014222 752.597333c-82.360889 0-149.347556-66.972444-149.347555-149.333333 0-82.346667 67.000889-149.333333 149.347555-149.333333 82.332444 0 149.333333 66.986667 149.333334 149.333333 0 82.360889-67.000889 149.333333-149.333334 149.333333z m0-270.222222c-66.673778 0-120.903111 54.243556-120.903111 120.888889 0 66.673778 54.229333 120.888889 120.903111 120.888889 66.645333 0 120.888889-54.229333 120.888889-120.888889 0-66.645333-54.243556-120.888889-120.888889-120.888889z"  /><path fill="#1afa29" d="M456.149333 566.172444a14.250667 14.250667 0 0 1-10.467555-23.864888c2.844444-3.086222 5.902222-6.001778 9.159111-8.661334a14.222222 14.222222 0 1 1 18.090667 21.973334c-2.247111 1.834667-4.366222 3.84-6.314667 5.944888a14.179556 14.179556 0 0 1-10.467556 4.608zM512.014222 693.333333a90.183111 90.183111 0 0 1-90.097778-90.083555 14.222222 14.222222 0 1 1 28.444445 0 61.710222 61.710222 0 0 0 61.653333 61.639111 14.222222 14.222222 0 1 1 0 28.444444zM510.236444 259.555556a28.444444 28.444444 0 0 1-28.444444-28.444445v-85.333333a28.444444 28.444444 0 0 1 56.888889 0v85.333333c0 15.701333-12.757333 28.444444-28.444445 28.444445zM346.353778 269.226667a28.401778 28.401778 0 0 1-25.429334-15.658667l-26.339555-52.337778a28.444444 28.444444 0 0 1 12.629333-38.200889 28.430222 28.430222 0 0 1 38.200889 12.615111l26.339556 52.337778a28.444444 28.444444 0 0 1-25.400889 41.244445zM180.394667 335.175111a28.359111 28.359111 0 0 1-21.162667-9.429333l-36.977778-41.159111a28.444444 28.444444 0 1 1 42.311111-38.030223l36.977778 41.159112a28.444444 28.444444 0 0 1-21.148444 47.459555zM662.485333 269.226667a28.444444 28.444444 0 0 1-25.386666-41.244445l26.339555-52.337778a28.416 28.416 0 0 1 38.200889-12.615111 28.444444 28.444444 0 0 1 12.615111 38.200889l-26.339555 52.337778a28.416 28.416 0 0 1-25.429334 15.658667zM828.430222 335.175111a28.444444 28.444444 0 0 1-21.134222-47.459555l36.977778-41.159112a28.444444 28.444444 0 1 1 42.296889 38.030223l-36.977778 41.159111c-5.603556 6.257778-13.354667 9.429333-21.162667 9.429333z"  /></svg>