<?xml version="1.0" standalone="no"?><!DOCTYPE svg PUBLIC "-//W3C//DTD SVG 1.1//EN" "http://www.w3.org/Graphics/SVG/1.1/DTD/svg11.dtd"><svg class="icon" width="200px" height="175.04px" viewBox="0 0 1170 1024" version="1.1" xmlns="http://www.w3.org/2000/svg"><path fill="#00ff00" d="M1024 0a146.285714 146.285714 0 0 1 146.285714 146.285714v536.380953a146.285714 146.285714 0 0 1-146.285714 146.285714h-146.285714v48.761905a146.285714 146.285714 0 0 1-146.285715 146.285714H438.857143a146.285714 146.285714 0 0 1-146.285714-146.285714v-48.761905H146.285714a146.285714 146.285714 0 0 1-146.285714-146.285714V146.285714a146.285714 146.285714 0 0 1 146.285714-146.285714h877.714286zM243.809524 97.52381H146.285714a48.761905 48.761905 0 0 0-48.420571 43.056761L97.52381 146.285714v536.380953a48.761905 48.761905 0 0 0 43.056761 48.420571L146.285714 731.428571h243.809524v146.285715a48.761905 48.761905 0 0 0 43.056762 48.420571L438.857143 926.47619h292.571428a48.761905 48.761905 0 0 0 48.420572-43.056761L780.190476 877.714286v-146.285715h243.809524a48.761905 48.761905 0 0 0 48.420571-43.056761L1072.761905 682.666667V146.285714a48.761905 48.761905 0 0 0-43.056762-48.420571L1024 97.52381h-97.52381v195.047619a48.761905 48.761905 0 0 1-97.523809 0V97.52381h-97.52381v195.047619a48.761905 48.761905 0 0 1-97.523809 0V97.52381h-97.52381v195.047619a48.761905 48.761905 0 0 1-97.523809 0V97.52381H341.333333v195.047619a48.761905 48.761905 0 0 1-97.523809 0V97.52381z"  /></svg>