<?xml version="1.0" standalone="no"?><!DOCTYPE svg PUBLIC "-//W3C//DTD SVG 1.1//EN" "http://www.w3.org/Graphics/SVG/1.1/DTD/svg11.dtd"><svg class="icon" width="200px" height="200.00px" viewBox="0 0 1024 1024" version="1.1" xmlns="http://www.w3.org/2000/svg"><path fill="#00ff00" d="M960 128v640H64V128h896m0-64H64C28.8 64 0 92.8 0 128v640c0 35.2 28.8 64 64 64h896c35.2 0 64-28.8 64-64V128c0-35.2-28.8-64-64-64zM214.4 585.6L115.2 310.4h60.8l70.4 204.8 67.2-204.8h57.6l-99.2 275.2H214.4zM400 585.6V310.4h54.4l112 182.4V310.4h51.2v275.2h-54.4l-112-179.2v179.2h-51.2zM854.4 483.2l54.4 16c-9.6 28.8-22.4 51.2-41.6 67.2s-44.8 22.4-73.6 22.4c-35.2 0-67.2-12.8-89.6-38.4s-35.2-57.6-35.2-102.4c0-44.8 12.8-80 35.2-105.6s54.4-38.4 92.8-38.4c35.2 0 60.8 9.6 83.2 28.8 12.8 12.8 22.4 28.8 28.8 51.2l-54.4 12.8c-3.2-12.8-9.6-25.6-19.2-35.2s-25.6-9.6-41.6-9.6c-19.2 0-38.4 6.4-48 22.4s-19.2 38.4-19.2 70.4c0 35.2 6.4 60.8 19.2 73.6s28.8 22.4 48 22.4c16 0 28.8-3.2 38.4-12.8s16-22.4 22.4-44.8zM761.6 960H265.6c-6.4 0-9.6-3.2-9.6-9.6v-48c0-3.2 3.2-6.4 9.6-6.4h496c3.2 0 9.6 3.2 9.6 9.6v48c-3.2 3.2-6.4 6.4-9.6 6.4z" /></svg>