<?xml version="1.0" standalone="no"?><!DOCTYPE svg PUBLIC "-//W3C//DTD SVG 1.1//EN" "http://www.w3.org/Graphics/SVG/1.1/DTD/svg11.dtd"><svg class="icon" width="200px" height="200.00px" viewBox="0 0 1024 1024" version="1.1" xmlns="http://www.w3.org/2000/svg"><path fill="#00ff00" d="M242.3 467c-17.5 0-31.7-14.3-31.7-31.8s14.2-31.7 31.7-31.7c17.2 0 31.8 14.5 31.8 31.7-0.1 17.3-14.6 31.8-31.8 31.8zM376.7 467c-17.5 0-31.7-14.3-31.7-31.8s14.2-31.7 31.7-31.7c17.2 0 31.8 14.5 31.8 31.7-0.1 17.3-14.6 31.8-31.8 31.8zM511 467c-17.5 0-31.7-14.3-31.7-31.8s14.2-31.7 31.7-31.7c17.2 0 31.8 14.5 31.8 31.7 0 17.3-14.5 31.8-31.8 31.8zM645.4 467c-17.5 0-31.7-14.3-31.7-31.8s14.2-31.7 31.7-31.7c17.2 0 31.8 14.5 31.8 31.7 0 17.3-14.6 31.8-31.8 31.8zM779.8 467c-17.5 0-31.7-14.3-31.7-31.8s14.2-31.7 31.7-31.7c17.2 0 31.8 14.5 31.8 31.7 0 17.3-14.6 31.8-31.8 31.8z"  /><path fill="#00ff00" d="M309.5 621.8c-17.5 0-31.7-14.3-31.7-31.8s14.2-31.7 31.7-31.7c17.2 0 31.8 14.5 31.8 31.7-0.1 17.2-14.6 31.8-31.8 31.8zM443.9 621.8c-17.5 0-31.7-14.3-31.7-31.8s14.2-31.7 31.7-31.7c17.2 0 31.8 14.5 31.8 31.7-0.1 17.2-14.6 31.8-31.8 31.8zM578.2 621.8c-17.5 0-31.7-14.3-31.7-31.8s14.2-31.7 31.7-31.7c17.2 0 31.8 14.5 31.8 31.7s-14.6 31.8-31.8 31.8zM712.6 621.8c-17.5 0-31.7-14.3-31.7-31.8s14.2-31.7 31.7-31.7c17.2 0 31.8 14.5 31.8 31.7s-14.6 31.8-31.8 31.8z"  /><path fill="#00ff00" d="M789.3 761H220.5C149.2 761 87.2 717.6 73 647.8L25 418.2c-7.8-38.2 1.9-77.4 26.6-107.6 24.7-30.2 61.2-47.5 100.2-47.5h720.5c38.9 0 75.3 17.2 100 47.2 24.7 30 34.5 69.1 27 107.2l-62.5 230.4C923 717.3 861 761 789.3 761zM151.8 294.1c-29.6 0-57.4 13.2-76.1 36.1-18.8 23-26.2 52.8-20.3 81.8l48.1 229.6c11.2 55.4 60.4 88.3 116.9 88.3h568.9c56.8 0 106.1-33.2 117.1-88.9l62.5-230.4c5.5-28-2-57.7-20.7-80.5-18.8-22.8-46.4-35.9-76-35.9H151.8z"  /></svg>