<?xml version="1.0" standalone="no"?><!DOCTYPE svg PUBLIC "-//W3C//DTD SVG 1.1//EN" "http://www.w3.org/Graphics/SVG/1.1/DTD/svg11.dtd"><svg class="icon" width="200px" height="200.00px" viewBox="0 0 1024 1024" version="1.1" xmlns="http://www.w3.org/2000/svg"><path fill="#1afa29" d="M877.149091 582.213818a93.090909 93.090909 0 0 1-8.634182 145.687273l-303.127273 212.177454a93.090909 93.090909 0 0 1-106.775272 0L155.485091 727.901091a93.090909 93.090909 0 0 1-8.610909-145.687273l40.005818 28.020364-4.701091 3.258182a46.545455 46.545455 0 0 0 0 76.264727l303.127273 212.200727a46.545455 46.545455 0 0 0 53.387636 0l303.127273-212.200727a46.545455 46.545455 0 0 0 0-76.241455l-4.701091-3.281454 40.029091-28.020364zM155.485091 296.098909l303.127273-212.177454a93.090909 93.090909 0 0 1 106.775272 0l303.127273 212.177454a93.090909 93.090909 0 0 1 0 152.529455l-303.127273 212.177454a93.090909 93.090909 0 0 1-106.775272 0L155.485091 448.628364a93.090909 93.090909 0 0 1 0-152.529455z m26.693818 38.144a46.545455 46.545455 0 0 0 0 76.241455l303.127273 212.200727a46.545455 46.545455 0 0 0 53.387636 0l303.127273-212.200727a46.545455 46.545455 0 0 0 0-76.241455L538.693818 122.042182a46.545455 46.545455 0 0 0-53.387636 0L182.178909 334.242909z" /></svg>