<?xml version="1.0" standalone="no"?><!DOCTYPE svg PUBLIC "-//W3C//DTD SVG 1.1//EN" "http://www.w3.org/Graphics/SVG/1.1/DTD/svg11.dtd"><svg class="icon" width="200px" height="200.00px" viewBox="0 0 1024 1024" version="1.1" xmlns="http://www.w3.org/2000/svg"><path fill="#1afa29" d="M901 256H317c-33 0-60 27-60 60v584c0 33 27 60 60 60h584c33 0 60-27 60-60V316c0-33-27-60-60-60z m0 643.893a0.901 0.901 0 0 1-0.107 0.107H317.108a0.901 0.901 0 0 1-0.107-0.107V316.108a0.901 0.901 0 0 1 0.107-0.107h583.784V316c0.037 0.031 0.076 0.07 0.108 0.108v583.785zM783.5 578h-145V433.578c0-15.188-11.071-28.423-26.138-30.333C594.16 400.938 578.5 415.229 578.5 433v145h-145c-16.5 0-30 13.5-30 30s13.5 30 30 30h145v144.422c0 15.188 11.071 28.423 26.138 30.333C622.84 815.062 638.5 800.771 638.5 783V638h145c16.5 0 30-13.5 30-30s-13.5-30-30-30zM482 124h189c16.5 0 30-13.5 30-30s-13.5-30-30-30H125c-33 0-60 27-60 60v547c0 16.5 13.5 30 30 30s30-13.5 30-30V124h357z" /></svg>