<?xml version="1.0" standalone="no"?><!DOCTYPE svg PUBLIC "-//W3C//DTD SVG 1.1//EN" "http://www.w3.org/Graphics/SVG/1.1/DTD/svg11.dtd"><svg class="icon" width="200px" height="200.00px" viewBox="0 0 1024 1024" version="1.1" xmlns="http://www.w3.org/2000/svg"><path fill="#1afa29" d="M106.1 168.3m-42.8 0a42.8 42.8 0 1 0 85.6 0 42.8 42.8 0 1 0-85.6 0Z"  /><path fill="#1afa29" d="M106.1 511.7m-42.8 0a42.8 42.8 0 1 0 85.6 0 42.8 42.8 0 1 0-85.6 0Z"  /><path fill="#1afa29" d="M63.2 855c0 23.5 18.9 42.8 42.8 42.8 23.5 0 42.8-18.9 42.8-42.8 0-23.5-18.9-42.8-42.8-42.8-23.4 0-42.8 19.4-42.8 42.8zM955.7 169.2c0 19.8-17.5 35.9-39.6 35.9H356.9c-21.6 0-39.6-16.1-39.6-35.9 0-19.8 17.5-35.9 39.6-35.9h559.3c22.1 0 39.5 16.1 39.5 35.9zM955.7 511.7c0 19.8-17.5 35.9-39.6 35.9H356.9c-21.6 0-39.6-16.1-39.6-35.9 0-19.8 17.5-35.9 39.6-35.9h559.3c22.1 0 39.5 16.1 39.5 35.9zM955.7 854.1c0 19.8-17.5 35.9-39.6 35.9H356.9c-21.6 0-39.6-16.1-39.6-35.9 0-19.8 17.5-35.9 39.6-35.9h559.3c22.1 0 39.5 16.1 39.5 35.9z"  /></svg>