<?xml version="1.0" standalone="no"?><!DOCTYPE svg PUBLIC "-//W3C//DTD SVG 1.1//EN" "http://www.w3.org/Graphics/SVG/1.1/DTD/svg11.dtd"><svg class="icon" width="200px" height="200.00px" viewBox="0 0 1024 1024" version="1.1" xmlns="http://www.w3.org/2000/svg"><path fill="#1afa29" d="M691.2 450.56L640 419.84c5.12-15.36 5.12-30.72 5.12-46.08s0-30.72-5.12-46.08l51.2-30.72c20.48-10.24 25.6-35.84 15.36-56.32l-56.32-97.28C640 122.88 614.4 117.76 593.92 128l-51.2 30.72c-25.6-20.48-51.2-35.84-81.92-46.08V51.2c0-20.48-15.36-40.96-40.96-40.96H307.2c-20.48 0-40.96 20.48-40.96 40.96v61.44c-30.72 10.24-56.32 25.6-81.92 46.08L133.12 128c-20.48-10.24-46.08-5.12-56.32 15.36l-56.32 97.28c-10.24 20.48-5.12 40.96 15.36 56.32l51.2 30.72c0 15.36-5.12 30.72-5.12 46.08s0 30.72 5.12 46.08l-51.2 30.72c-20.48 10.24-25.6 35.84-15.36 56.32l56.32 97.28c10.24 20.48 35.84 25.6 56.32 15.36l51.2-30.72c25.6 20.48 51.2 35.84 81.92 51.2v61.44c0 20.48 15.36 40.96 40.96 40.96h112.64c20.48-5.12 40.96-25.6 40.96-46.08v-61.44c30.72-10.24 61.44-25.6 81.92-46.08l51.2 30.72c20.48 10.24 40.96 5.12 56.32-15.36l56.32-97.28c10.24-20.48 5.12-46.08-15.36-56.32z m-327.68 40.96c-66.56 0-117.76-51.2-117.76-117.76S296.96 256 363.52 256s117.76 51.2 117.76 117.76-51.2 117.76-117.76 117.76z m640 353.28l-30.72-15.36c0-10.24 5.12-20.48 5.12-30.72s0-20.48-5.12-30.72l30.72-20.48c10.24-5.12 15.36-20.48 10.24-30.72l-35.84-61.44c-5.12-10.24-20.48-15.36-30.72-10.24l-35.84 20.48c-15.36-10.24-30.72-20.48-51.2-30.72v-35.84c0-15.36-10.24-25.6-25.6-25.6H768c-15.36 0-25.6 10.24-25.6 25.6v35.84c-20.48 5.12-35.84 15.36-51.2 30.72l-30.72-20.48c-10.24-5.12-25.6-5.12-30.72 10.24l-35.84 61.44c-5.12 10.24-5.12 25.6 10.24 30.72L634.88 768c0 10.24-5.12 20.48-5.12 30.72s0 20.48 5.12 30.72l-30.72 20.48c-10.24 5.12-15.36 20.48-10.24 30.72l35.84 61.44c5.12 10.24 20.48 15.36 30.72 10.24l30.72-20.48c15.36 10.24 30.72 25.6 51.2 30.72v35.84c0 15.36 10.24 25.6 25.6 25.6h66.56c15.36 0 25.6-10.24 25.6-25.6v-35.84c20.48-5.12 35.84-15.36 51.2-30.72l30.72 20.48c10.24 5.12 25.6 5.12 30.72-10.24l35.84-61.44c10.24-15.36 5.12-30.72-5.12-35.84z m-199.68 25.6c-40.96 0-71.68-30.72-71.68-71.68 0-40.96 30.72-71.68 71.68-71.68s71.68 30.72 71.68 71.68c0 40.96-30.72 71.68-71.68 71.68z" /></svg>