<?xml version="1.0" standalone="no"?><!DOCTYPE svg PUBLIC "-//W3C//DTD SVG 1.1//EN" "http://www.w3.org/Graphics/SVG/1.1/DTD/svg11.dtd"><svg class="icon" width="200px" height="200.00px" viewBox="0 0 1024 1024" version="1.1" xmlns="http://www.w3.org/2000/svg"><path fill="#1afa29" d="M428.447049 130.400932c-165.798117 0-300.69648 134.931109-300.69648 300.759925 0 165.798117 134.899386 300.69648 300.69648 300.69648 165.829839 0 300.728202-134.899386 300.728202-300.69648C729.175251 265.332041 594.274842 130.400932 428.447049 130.400932zM428.447049 672.01439c-132.821051 0-240.821811-108.032482-240.821811-240.853533 0-132.821051 108.032482-240.885256 240.821811-240.885256s240.853533 108.064204 240.853533 240.885256C669.331281 563.981908 561.267077 672.01439 428.447049 672.01439zM872.861768 774.315334 763.127528 664.581094c-27.182083-27.182083-71.276347-27.182083-98.458429 0-27.182083 27.182083-27.182083 71.276347 0 98.458429l109.702518 109.733217c27.182083 27.212782 71.276347 27.212782 98.490152 0C900.011104 845.591681 900.011104 801.496393 872.861768 774.315334z" /></svg>