<?xml version="1.0" standalone="no"?><!DOCTYPE svg PUBLIC "-//W3C//DTD SVG 1.1//EN" "http://www.w3.org/Graphics/SVG/1.1/DTD/svg11.dtd"><svg class="icon" width="200px" height="200.00px" viewBox="0 0 1024 1024" version="1.1" xmlns="http://www.w3.org/2000/svg"><path fill="#ff0000" d="M440 90.5v176H136v-176h304m0-72H136c-39.8 0-72 32.2-72 72v176c0 39.8 32.2 72 72 72h304c39.8 0 72-32.2 72-72v-176c0-39.8-32.2-72-72-72zM888 658.8v176H584v-176h304m0-72H584c-39.8 0-72 32.2-72 72v176c0 39.8 32.2 72 72 72h304c39.8 0 72-32.2 72-72v-176c0-39.8-32.2-72-72-72z m-64.2-131.1c0 12.1-0.7 24-2 35.7-2.4 20.8 13.9 39.1 34.9 39.1 17.8 0 32.9-13.3 34.9-30.9 1.6-14.4 2.5-29 2.5-43.8 0-211.6-172.5-383.6-384.1-383-21.1 0.1-41.7 1.8-61.9 5.2v71.4c20.4-4.2 41.4-6.3 63-6.3C683.7 143 823.8 283 823.8 455.7zM512 768.5h-1c-172.7 0-312.8-140-312.8-312.8 0-5.5 0.1-41.9 0.4-47.3 1-20.1-15-36.9-35.1-36.9-18.7 0-34.1 14.7-35.1 33.4-0.3 6.6-0.5 44.2-0.5 50.8 0 211.9 172 383.5 384 383v-70.2z m-64-367c0-19.9-16.1-36-36-36H164c-19.9 0-36 16.1-36 36s16.1 36 36 36h248c19.9 0 36-16.1 36-36z m448 568c0-19.9-16.1-36-36-36H612c-19.9 0-36 16.1-36 36s16.1 36 36 36h248c19.9 0 36-16.1 36-36z" /></svg>