<?xml version="1.0" standalone="no"?><!DOCTYPE svg PUBLIC "-//W3C//DTD SVG 1.1//EN" "http://www.w3.org/Graphics/SVG/1.1/DTD/svg11.dtd"><svg class="icon" width="200px" height="200.00px" viewBox="0 0 1024 1024" version="1.1" xmlns="http://www.w3.org/2000/svg"><path fill="#ff0000" d="M896 192H128c-35.2 0-64 28.8-64 64v512c0 35.2 28.8 64 64 64h768c35.2 0 64-28.8 64-64V256c0-35.2-28.8-64-64-64z m0 64v128H128V256h768zM128 448h128v320H128V448z m192 320V448h576v320H320z"  /><path fill="#ff0000" d="M192 320m-32 0a32 32 0 1 0 64 0 32 32 0 1 0-64 0Z"  /><path fill="#ff0000" d="M288 320m-32 0a32 32 0 1 0 64 0 32 32 0 1 0-64 0Z"  /><path fill="#ff0000" d="M384 320m-32 0a32 32 0 1 0 64 0 32 32 0 1 0-64 0Z"  /></svg>