<?xml version="1.0" standalone="no"?><!DOCTYPE svg PUBLIC "-//W3C//DTD SVG 1.1//EN" "http://www.w3.org/Graphics/SVG/1.1/DTD/svg11.dtd"><svg class="icon" width="200px" height="200.00px" viewBox="0 0 1024 1024" version="1.1" xmlns="http://www.w3.org/2000/svg"><path fill="#ff0000" d="M833.92 191.36a455.232 455.232 0 1 0 0 643.648 454.72 454.72 0 0 0 0-643.712z m-40.32 603.392a398.4 398.4 0 1 1 116.352-281.6 395.648 395.648 0 0 1-116.352 281.6zM310.4 550.144L240.64 387.264h-34.432V637.44h36.736V481.024l50.752 120.32h32.128l50.752-120.32V637.44h36.736V386.816h-34.88L310.4 550.144z m449.28 51.456a43.072 43.072 0 0 1-23.36-5.568 46.528 46.528 0 0 1-24.896-33.984A322.816 322.816 0 0 1 709.824 512a334.72 334.72 0 0 1 2.56-50.56c1.28-7.552 4.608-14.72 9.536-20.672a49.792 49.792 0 0 1 15.36-12.992 50.944 50.944 0 0 1 23.296-5.376 46.528 46.528 0 0 1 30.016 10.496 56.32 56.32 0 0 1 16.256 25.792h39.104a96.128 96.128 0 0 0-27.904-52.608 81.664 81.664 0 0 0-57.28-21.376 82.88 82.88 0 0 0-47.936 13.952 87.68 87.68 0 0 0-28.16 30.976 69.76 69.76 0 0 0-8.128 23.232 433.28 433.28 0 0 0-3.52 59.136c-0.64 19.392 0 38.848 1.92 58.24 0.512 4.48 1.6 8.96 3.2 13.184a81.28 81.28 0 0 0 33.024 41.408c14.08 9.6 30.72 14.72 47.744 14.464 20.16 0.64 39.872-5.888 55.68-18.368a95.36 95.36 0 0 0 30.464-53.568h-39.104a49.28 49.28 0 0 1-46.336 34.24zM535.232 386.816L447.744 637.44h38.912l18.56-56.064H598.4l18.88 56.064h38.592L566.72 386.816h-31.424zM515.2 547.584L550.4 438.016l35.2 109.568h-70.4z"  /></svg>