<?xml version="1.0" standalone="no"?><!DOCTYPE svg PUBLIC "-//W3C//DTD SVG 1.1//EN" "http://www.w3.org/Graphics/SVG/1.1/DTD/svg11.dtd"><svg class="icon" width="200px" height="200.00px" viewBox="0 0 1024 1024" version="1.1" xmlns="http://www.w3.org/2000/svg"><path fill="#ff0000" d="M511.701333 614.698667l-66.218666 66.218666a170.666667 170.666667 0 1 1-60.501334-60.16l66.346667-66.389333-178.56-178.56 60.373333-60.373333 178.56 178.56 178.730667-178.730667 60.330667 60.330667-178.773334 178.773333 66.645334 66.56a170.666667 170.666667 0 1 1-60.330667 60.330667l-66.602667-66.56zM298.666667 853.333333a85.333333 85.333333 0 1 0 0-170.666666 85.333333 85.333333 0 0 0 0 170.666666z m426.666666 0a85.333333 85.333333 0 1 0 0-170.666666 85.333333 85.333333 0 0 0 0 170.666666z m85.333334-298.666666V213.333333H213.333333v341.333334H128V170.666667a42.666667 42.666667 0 0 1 42.666667-42.666667h682.666666a42.666667 42.666667 0 0 1 42.666667 42.666667v384h-85.333333z" /></svg>