<?xml version="1.0" standalone="no"?><!DOCTYPE svg PUBLIC "-//W3C//DTD SVG 1.1//EN" "http://www.w3.org/Graphics/SVG/1.1/DTD/svg11.dtd"><svg class="icon" width="200px" height="200.00px" viewBox="0 0 1024 1024" version="1.1" xmlns="http://www.w3.org/2000/svg"><path fill="#ff0000" d="M145.4 559.3c-25.6 0-46.4-20.8-46.4-46.4s20.8-46.4 46.4-46.4 46.4 20.8 46.4 46.4-20.8 46.4-46.4 46.4z m0-89.5c-23.7 0-43 19.3-43 43s19.3 43 43 43 43-19.3 43-43-19.3-43-43-43z"  /><path fill="#ff0000" d="M145.4 560.8c-26.4 0-48-21.5-48-48 0-26.4 21.5-48 48-48s48 21.5 48 48-21.5 48-48 48z m0-92.8c-24.8 0-44.9 20.1-44.9 44.9 0 24.7 20.1 44.9 44.9 44.9 24.7 0 44.9-20.1 44.9-44.9 0-24.8-20.1-44.9-44.9-44.9z m0 89.4c-24.6 0-44.5-20-44.5-44.5 0-24.6 20-44.5 44.5-44.5s44.5 20 44.5 44.5c0.1 24.5-19.9 44.5-44.5 44.5z m0-86c-22.9 0-41.5 18.6-41.5 41.5s18.6 41.5 41.5 41.5 41.5-18.6 41.5-41.5-18.6-41.5-41.5-41.5z"  /><path fill="#ff0000" d="M145.4 575.1c-34.3 0-62.2-27.9-62.2-62.2s27.9-62.2 62.2-62.2 62.2 27.9 62.2 62.2-27.9 62.2-62.2 62.2z m0-119.9c-31.8 0-57.6 25.9-57.6 57.6 0 31.8 25.9 57.6 57.6 57.6s57.6-25.9 57.6-57.6c0.1-31.7-25.8-57.6-57.6-57.6z"  /><path fill="#ff0000" d="M145.4 576.6c-35.1 0-63.7-28.6-63.7-63.7s28.6-63.7 63.7-63.7 63.7 28.6 63.7 63.7c0.1 35.1-28.5 63.7-63.7 63.7z m0-124.4c-33.5 0-60.7 27.2-60.7 60.7s27.2 60.7 60.7 60.7 60.7-27.2 60.7-60.7-27.2-60.7-60.7-60.7z m0 119.8c-32.6 0-59.2-26.5-59.2-59.2 0-32.6 26.5-59.2 59.2-59.2s59.2 26.5 59.2 59.2-26.5 59.2-59.2 59.2z m0-115.2c-30.9 0-56.1 25.2-56.1 56.1 0 30.9 25.2 56.1 56.1 56.1s56.1-25.2 56.1-56.1c0-31-25.1-56.1-56.1-56.1z"  /><path fill="#ff0000" d="M878.6 559.3c-25.6 0-46.4-20.8-46.4-46.4s20.8-46.4 46.4-46.4 46.4 20.8 46.4 46.4-20.8 46.4-46.4 46.4z m0-89.5c-23.7 0-43 19.3-43 43s19.3 43 43 43 43-19.3 43-43-19.3-43-43-43z"  /><path fill="#ff0000" d="M878.6 560.8c-26.4 0-48-21.5-48-48 0-26.4 21.5-48 48-48s48 21.5 48 48c-0.1 26.5-21.6 48-48 48z m0-92.8c-24.8 0-44.9 20.1-44.9 44.9 0 24.7 20.1 44.9 44.9 44.9 24.7 0 44.9-20.1 44.9-44.9 0-24.8-20.2-44.9-44.9-44.9z m0 89.4c-24.6 0-44.5-20-44.5-44.5 0-24.6 20-44.5 44.5-44.5s44.5 20 44.5 44.5-20 44.5-44.5 44.5z m0-86c-22.9 0-41.5 18.6-41.5 41.5s18.6 41.5 41.5 41.5 41.5-18.6 41.5-41.5c-0.1-22.9-18.7-41.5-41.5-41.5z"  /><path fill="#ff0000" d="M878.6 575.1c-34.3 0-62.2-27.9-62.2-62.2s27.9-62.2 62.2-62.2 62.2 27.9 62.2 62.2-27.9 62.2-62.2 62.2z m0-119.9c-31.8 0-57.6 25.9-57.6 57.6 0 31.8 25.9 57.6 57.6 57.6 31.8 0 57.6-25.9 57.6-57.6 0-31.7-25.9-57.6-57.6-57.6z"  /><path fill="#ff0000" d="M878.6 576.6c-35.1 0-63.7-28.6-63.7-63.7s28.6-63.7 63.7-63.7 63.7 28.6 63.7 63.7-28.6 63.7-63.7 63.7z m0-124.4c-33.5 0-60.7 27.2-60.7 60.7s27.2 60.7 60.7 60.7 60.7-27.2 60.7-60.7c-0.1-33.5-27.3-60.7-60.7-60.7z m0 119.8c-32.6 0-59.2-26.5-59.2-59.2 0-32.6 26.5-59.2 59.2-59.2 32.6 0 59.2 26.5 59.2 59.2-0.1 32.7-26.6 59.2-59.2 59.2z m0-115.2c-30.9 0-56.1 25.2-56.1 56.1 0 30.9 25.2 56.1 56.1 56.1 30.9 0 56.1-25.2 56.1-56.1 0-31-25.2-56.1-56.1-56.1z"  /><path fill="#ff0000" d="M928.4 702.1H95.6c-23.7 0-43.1-19.3-43.1-43.1V365c0-23.7 19.3-43.1 43.1-43.1h832.7c23.7 0 43.1 19.3 43.1 43.1v294c0 23.7-19.3 43.1-43 43.1zM95.6 332.2c-18.1 0-32.8 14.7-32.8 32.8v294c0 18.1 14.7 32.8 32.8 32.8h832.7c18.1 0 32.8-14.7 32.8-32.8V365c0-18.1-14.7-32.8-32.8-32.8H95.6z"  /><path fill="#ff0000" d="M361.1 487c-9.8 0-17.8-8-17.8-17.8s8-17.8 17.8-17.8c9.6 0 17.8 8.1 17.8 17.8-0.1 9.7-8.2 17.8-17.8 17.8z m0-27.9c-5.6 0-10.2 4.6-10.2 10.2s4.6 10.2 10.2 10.2c5.5 0 10.2-4.7 10.2-10.2 0-5.5-4.8-10.2-10.2-10.2zM436.3 487c-9.8 0-17.8-8-17.8-17.8s8-17.8 17.8-17.8c9.6 0 17.8 8.1 17.8 17.8-0.1 9.7-8.2 17.8-17.8 17.8z m0-27.9c-5.6 0-10.2 4.6-10.2 10.2s4.6 10.2 10.2 10.2c5.5 0 10.2-4.7 10.2-10.2 0-5.5-4.8-10.2-10.2-10.2zM511.5 487c-9.8 0-17.8-8-17.8-17.8s8-17.8 17.8-17.8c9.6 0 17.8 8.1 17.8 17.8-0.1 9.7-8.2 17.8-17.8 17.8z m0-27.9c-5.6 0-10.2 4.6-10.2 10.2s4.6 10.2 10.2 10.2c5.5 0 10.2-4.7 10.2-10.2 0-5.5-4.8-10.2-10.2-10.2zM586.7 487c-9.8 0-17.8-8-17.8-17.8s8-17.8 17.8-17.8c9.6 0 17.8 8.1 17.8 17.8-0.1 9.7-8.2 17.8-17.8 17.8z m0-27.9c-5.6 0-10.2 4.6-10.2 10.2s4.6 10.2 10.2 10.2c5.5 0 10.2-4.7 10.2-10.2 0-5.5-4.8-10.2-10.2-10.2zM661.9 487c-9.8 0-17.8-8-17.8-17.8s8-17.8 17.8-17.8c9.6 0 17.8 8.1 17.8 17.8 0 9.7-8.2 17.8-17.8 17.8z m0-27.9c-5.6 0-10.2 4.6-10.2 10.2s4.6 10.2 10.2 10.2c5.5 0 10.2-4.7 10.2-10.2 0-5.5-4.8-10.2-10.2-10.2z"  /><path fill="#ff0000" d="M398.7 573.6c-9.8 0-17.8-8-17.8-17.8s8-17.8 17.8-17.8c9.6 0 17.8 8.1 17.8 17.8-0.1 9.7-8.2 17.8-17.8 17.8z m0-27.9c-5.6 0-10.2 4.6-10.2 10.2s4.6 10.2 10.2 10.2c5.5 0 10.2-4.7 10.2-10.2 0-5.5-4.8-10.2-10.2-10.2zM473.9 573.6c-9.8 0-17.8-8-17.8-17.8s8-17.8 17.8-17.8c9.6 0 17.8 8.1 17.8 17.8-0.1 9.7-8.2 17.8-17.8 17.8z m0-27.9c-5.6 0-10.2 4.6-10.2 10.2s4.6 10.2 10.2 10.2c5.5 0 10.2-4.7 10.2-10.2 0-5.5-4.8-10.2-10.2-10.2zM549.1 573.6c-9.8 0-17.8-8-17.8-17.8s8-17.8 17.8-17.8c9.6 0 17.8 8.1 17.8 17.8-0.1 9.7-8.2 17.8-17.8 17.8z m0-27.9c-5.6 0-10.2 4.6-10.2 10.2s4.6 10.2 10.2 10.2c5.5 0 10.2-4.7 10.2-10.2 0-5.5-4.8-10.2-10.2-10.2zM624.3 573.6c-9.8 0-17.8-8-17.8-17.8s8-17.8 17.8-17.8c9.6 0 17.8 8.1 17.8 17.8-0.1 9.7-8.2 17.8-17.8 17.8z m0-27.9c-5.6 0-10.2 4.6-10.2 10.2s4.6 10.2 10.2 10.2c5.5 0 10.2-4.7 10.2-10.2 0-5.5-4.8-10.2-10.2-10.2z"  /><path fill="#ff0000" d="M667.2 651.5H348.8c-39.9 0-74.6-24.3-82.5-63.3l-26.9-128.5c-4.3-21.4 1.1-43.3 14.9-60.2 13.8-16.9 34.2-26.6 56.1-26.6h403.2c21.7 0 42.1 9.6 56 26.4 13.8 16.8 19.3 38.7 15.1 60l-35 129c-7.7 38.8-42.4 63.2-82.5 63.2zM310.4 390.3c-16.6 0-32.1 7.4-42.6 20.2-10.5 12.8-14.6 29.5-11.3 45.8l26.9 128.5c6.3 31 33.8 49.4 65.4 49.4h318.4c31.8 0 59.4-18.6 65.5-49.8l35-129c3.1-15.7-1.1-32.3-11.6-45.1-10.5-12.8-26-20.1-42.5-20.1H310.4z"  /></svg>