<?xml version="1.0" standalone="no"?><!DOCTYPE svg PUBLIC "-//W3C//DTD SVG 1.1//EN" "http://www.w3.org/Graphics/SVG/1.1/DTD/svg11.dtd"><svg class="icon" width="200px" height="200.00px" viewBox="0 0 1024 1024" version="1.1" xmlns="http://www.w3.org/2000/svg"><path fill="#ff0000" d="M981.758943 311.37161c-25.674753-60.712757-62.431911-115.234511-109.24817-162.05077-46.816259-46.806026-101.338013-83.563184-162.05077-109.24817-62.196551-26.298969-128.210034-39.775912-196.23943-40.062438-0.73678 0-1.473561-0.010233-2.220574-0.010233s-1.483794 0.010233-2.220574 0.010233c-68.029396 0.286526-134.042879 13.763468-196.23943 40.062438-60.712757 25.684986-115.234511 62.442144-162.05077 109.24817-46.816259 46.816259-83.573417 101.338013-109.24817 162.05077-26.585495 62.871933-40.072671 129.642662-40.072671 198.460004 0 68.827575 13.487176 135.598304 40.072671 198.460004 25.674753 60.712757 62.431911 115.234511 109.24817 162.05077s101.338013 83.573417 162.05077 109.24817c62.196551 26.309202 128.210034 39.775912 196.23943 40.062438 0.73678 0 1.473561 0.010233 2.220574 0.010233s1.483794-0.010233 2.220574-0.010233c68.029396-0.286526 134.042879-13.753235 196.23943-40.062438 60.712757-25.674753 115.234511-62.431911 162.05077-109.24817s83.573417-101.338013 109.24817-162.05077c26.585495-62.8617 40.072671-129.632429 40.072671-198.460004C1021.831614 441.014272 1008.344438 374.243543 981.758943 311.37161zM180.438559 178.270173c43.060725-43.070958 93.212962-76.880995 149.044548-100.498902 19.156292-8.094352 38.70144-14.878872 58.594513-20.302395-24.825408 24.866341-47.553039 57.468876-67.405179 97.173157-12.719696 25.439392-23.914666 53.089126-33.482579 82.509179-44.135196-11.768021-84.576257-27.03575-119.665427-45.445028C171.730223 187.152471 176.038342 182.670389 180.438559 178.270173zM79.939657 327.314721c15.748682-37.227879 36.020378-71.91796 60.559261-103.671151 39.294958 21.561062 85.057211 39.294958 135.158283 52.710502-17.263176 65.348334-27.086915 137.75748-28.591175 213.011418L43.550888 489.36549C45.924959 433.278077 58.133002 378.858654 79.939657 327.314721zM140.488685 796.019659c-24.52865-31.753191-44.800345-66.453505-60.549028-103.671151-21.806655-51.543933-34.014698-105.963357-36.388768-162.05077l203.515137 0c1.50426 75.243705 11.317767 147.642618 28.591175 212.990952C225.566362 756.704235 179.814342 774.448364 140.488685 796.019659zM329.483106 941.891957c-55.831586-23.617907-105.983823-57.427944-149.044548-100.488669-4.400217-4.400217-8.708336-8.882298-12.914124-13.43601 35.099403-18.439978 75.519997-33.717939 119.655194-45.465494 9.578146 29.420053 20.773116 57.069787 33.492812 82.519412 19.85214 39.70428 42.579771 72.306816 67.405179 97.173157C368.184547 956.770829 348.639398 949.986309 329.483106 941.891957zM491.533876 976.704834c-20.998243-4.154623-41.628096-14.725376-61.562101-31.589462-27.005051-22.840194-51.462069-55.954383-72.685439-98.401124-11.379165-22.748097-21.458731-47.430242-30.156834-73.688279 51.503001-10.765181 107.037828-17.017582 164.404374-18.21485L491.533876 976.704834zM491.533876 713.87887c-61.336974 1.238201-120.862695 8.05342-176.110997 19.85214-16.505929-62.135152-25.930579-131.300418-27.424606-203.433272l203.535603 0L491.533876 713.87887zM491.533876 489.36549l-203.535603 0c1.494027-72.15332 10.92891-141.328819 27.434839-203.463971 55.299467 11.82942 114.845655 18.654872 176.100764 19.903306L491.533876 489.36549zM491.533876 264.862343c-57.294914-1.207501-112.850208-7.459902-164.394141-18.24555 8.698103-26.247804 18.777669-50.919716 30.146601-73.667813 21.223371-42.446741 45.680389-75.550697 72.685439-98.401124 19.934005-16.853853 40.563858-27.434839 61.562101-31.589462L491.533876 264.862343zM694.516894 77.771271c55.831586 23.617907 105.983823 57.427944 149.044548 100.498902 4.389984 4.389984 8.68787 8.861832 12.893658 13.405311-34.669614 18.122753-75.438133 33.615609-119.685893 45.424562-9.55768-29.399587-20.75265-57.028854-33.462113-82.458013-19.862373-39.714514-42.590004-72.317049-67.415412-97.18339C655.794987 62.892399 675.350368 69.666686 694.516894 77.771271zM532.466124 42.958394c20.98801 4.164856 41.60763 14.735609 61.531402 31.589462 27.015284 22.850427 51.472302 55.954383 72.695672 98.401124 11.358699 22.727631 21.438265 47.38931 30.136368 73.616648-51.891857 10.857279-107.784842 17.07898-164.363442 18.286482L532.466124 42.958394zM532.466124 305.804824c61.244876-1.207501 120.258944-7.858992 176.100764-19.841907 16.505929 62.124919 25.940812 131.290185 27.434839 203.402573l-203.535603 0L532.466124 305.804824 532.466124 305.804824zM532.466124 530.297738l203.535603 0c-1.50426 72.143087-10.92891 141.328819-27.455305 203.474204-55.289234-11.82942-114.835422-18.654872-176.080298-19.903306L532.466124 530.297738 532.466124 530.297738zM593.997526 945.115372c-19.923772 16.853853-40.543392 27.434839-61.531402 31.589462L532.466124 754.811118c57.284681 1.207501 112.839974 7.459902 164.373675 18.24555-8.698103 26.237571-18.777669 50.909483-30.146601 73.65758C645.469827 889.160989 621.012809 922.275177 593.997526 945.115372zM843.561441 841.403289c-43.060725 43.060725-93.212962 76.870762-149.044548 100.488669-19.166525 8.104585-38.721907 14.878872-58.625212 20.312628 24.825408-24.866341 47.553039-57.468876 67.415412-97.18339 12.719696-25.429159 23.904433-53.078893 33.482579-82.488713 44.145429 11.747555 84.596723 27.025517 119.685893 45.434795C852.269777 832.520991 847.961658 837.003072 843.561441 841.403289zM944.060343 692.348508c-15.748682 37.227879-36.020378 71.91796-60.559261 103.681384-39.305191-21.561062-85.067444-39.294958-135.178749-52.710502 17.283642-65.358567 27.107381-137.767713 28.611641-213.021651l203.515137 0C978.075041 586.385151 965.866998 640.804574 944.060343 692.348508zM776.933975 489.36549c-1.50426-75.233472-11.328-147.632385-28.601408-212.980719 50.848085-13.630439 96.18055-31.323403 135.168516-52.741201 24.538883 31.753191 44.810578 66.443271 60.559261 103.671151 21.806655 51.543933 34.014698 105.963357 36.388768 162.05077L776.933975 489.36549z"  /></svg>
