<?xml version="1.0" standalone="no"?><!DOCTYPE svg PUBLIC "-//W3C//DTD SVG 1.1//EN" "http://www.w3.org/Graphics/SVG/1.1/DTD/svg11.dtd"><svg class="icon" width="200px" height="200.00px" viewBox="0 0 1024 1024" version="1.1" xmlns="http://www.w3.org/2000/svg"><path fill="#ffffff" d="M298.496 217.088H721.92c16.384 0 29.696 13.312 29.696 29.696s-13.312 29.696-29.696 29.696H298.496c-16.384 0-29.696-13.312-29.696-29.696s13.312-29.696 29.696-29.696zM873.984 38.4H150.016c-33.28 0-60.416 26.624-60.416 59.392V926.72c0 32.768 27.136 59.392 60.416 59.392H337.92c16.384 0 29.696-13.312 29.696-29.696s-13.312-29.696-29.696-29.696H150.016V97.792h723.968v340.992c0 16.896 13.312 30.208 30.208 30.208S934.4 455.68 934.4 438.784V97.792c0-32.768-27.136-59.392-60.416-59.392zM849.92 704.512H352.256c-14.848 0-32.256-7.168-32.256-28.16 0-19.968 16.896-27.136 32.256-27.136H849.92l-104.96-94.208c-12.288-13.312-12.288-34.304 0-47.616 11.776-12.8 31.744-13.312 44.544-1.024l1.024 1.024 125.44 118.272c11.264 12.288 17.92 28.16 17.408 44.544 0 12.8-3.584 18.944-10.24 26.112-4.608 4.608-10.752 7.68-17.408 7.68l-55.808 0.512z m-445.44 74.24h497.664c14.848 0 32.256 7.168 32.256 28.16 0 19.968-16.896 27.136-32.256 27.136H404.48l104.96 94.208c12.288 13.312 12.288 34.304 0 47.616-11.776 12.8-31.744 13.312-44.544 1.024l-1.024-1.024L338.432 857.6c-11.264-12.288-17.92-28.16-17.408-44.544 0-12.8 3.584-18.944 10.24-26.112 4.608-4.608 10.752-7.68 17.408-7.68l55.808-0.512zM298.496 335.36H481.28c16.384 0 29.696 13.312 29.696 29.696s-13.312 29.696-29.696 29.696H298.496c-16.384 0-29.696-13.312-29.696-29.696s13.312-29.696 29.696-29.696z" /></svg>