<?xml version="1.0" standalone="no"?><!DOCTYPE svg PUBLIC "-//W3C//DTD SVG 1.1//EN" "http://www.w3.org/Graphics/SVG/1.1/DTD/svg11.dtd"><svg class="icon" width="200px" height="200.00px" viewBox="0 0 1024 1024" version="1.1" xmlns="http://www.w3.org/2000/svg"><path fill="#ffffff" d="M608.24 512v260.064L673.12 705.6 720 747.776 544 928V512h64.24zM480 416v416h-64.24V571.936L350.88 638.4 304 596.224 480 416z m32-320c144.4 0 264.272 106.368 284.88 245.632l0.736 5.376 0.592 4.992 6.864 0.064c118 2.608 213.488 96.48 218.704 213.824l0.16 5.12L1024 576c0 122.048-97.6 221.28-218.992 223.952L800 800h-64v-64h64c86.88 0 157.568-69.232 159.936-155.52L960 576c0-86.88-69.232-157.568-155.52-159.936L800 416h-63.68l-0.368-36.416C733.6 257.744 634.08 160 512 160c-122.048 0-221.28 97.6-223.952 218.992L288 384v32h-64C135.632 416 64 487.632 64 576c0 86.88 69.232 157.568 155.52 159.936L224 736h64v64h-64C101.952 800 2.72 702.4 0.048 581.008L0 576c0-122.048 97.6-221.28 218.992-223.952L224 352h1.744l0.544-4.528C243.792 209.2 359.36 101.472 501.12 96.208l5.6-0.16L512 96z"  /></svg>