<?xml version="1.0" standalone="no"?><!DOCTYPE svg PUBLIC "-//W3C//DTD SVG 1.1//EN" "http://www.w3.org/Graphics/SVG/1.1/DTD/svg11.dtd"><svg class="icon" width="200px" height="200.00px" viewBox="0 0 1024 1024" version="1.1" xmlns="http://www.w3.org/2000/svg"><path fill="#ffffff" d="M97.7 938.9c-2.8 0-5.6-1.1-7.7-3.2-3.9-3.9-4.3-10.2-0.8-14.5L377 564.3c1.9-2.4 4.8-3.9 7.9-4 3.1-0.2 6.1 1 8.3 3.2l69.1 69.1c2.2 2.2 3.3 5.2 3.2 8.3-0.2 3.1-1.6 5.9-4 7.9l-357 287.7c-2 1.6-4.4 2.4-6.8 2.4z m288.7-351.5L169.8 856l268.6-216.6-52-52zM853.6 444.4c-17.4 0-33.7-6.8-46-19.1L600.4 218.1c-25.4-25.4-25.4-66.7 0-92.1 25.4-25.4 66.7-25.4 92.1 0l207.2 207.2c25.4 25.4 25.4 66.7 0 92.1-12.3 12.3-28.7 19.1-46.1 19.1z m-207.2-294c-5.6 0-11.1 2.1-15.4 6.3-8.5 8.5-8.5 22.2 0 30.7l207.2 207.2c8.2 8.2 22.5 8.2 30.7 0 8.5-8.5 8.5-22.2 0-30.7L661.8 156.7c-4.2-4.2-9.8-6.3-15.4-6.3zM604.2 811.6c-5.6 0-11.1-2.1-15.3-6.4L220.5 436.8c-8.5-8.5-8.5-22.2 0-30.7 24.6-24.6 57.3-38.1 92.1-38.1s67.5 13.5 92.1 38.1L619.6 621c50.8 50.8 50.8 133.4 0 184.2-4.3 4.3-9.8 6.4-15.4 6.4zM268.5 423.4l333.8 333.8c7.8-13.2 12-28.4 12-44.1 0-23.2-9-45-25.4-61.4L374 436.8c-16.4-16.4-38.2-25.4-61.4-25.4-15.8 0-30.9 4.2-44.1 12zM611.9 665.8c-5.7 0-11.3-2.3-15.3-6.4L366.3 429.2c-4.3-4.3-6.6-10.3-6.3-16.5 0.3-6.1 3.2-11.8 8-15.7l245.6-199.5c8.6-7 21.2-6.4 29 1.5l184.2 184.2c7.9 7.9 8.5 20.4 1.5 29L628.8 657.7c-3.9 4.8-9.6 7.7-15.7 8-0.4 0.1-0.8 0.1-1.2 0.1zM414 415.5l196.2 196.2 172-211.7-156.4-156.5-211.8 172z" /></svg>