<?xml version="1.0" standalone="no"?><!DOCTYPE svg PUBLIC "-//W3C//DTD SVG 1.1//EN" "http://www.w3.org/Graphics/SVG/1.1/DTD/svg11.dtd"><svg class="icon" width="200px" height="188.24px" viewBox="0 0 1088 1024" version="1.1" xmlns="http://www.w3.org/2000/svg"><path fill="#ffffff" d="M1040.265594 120.46811h-75.60235V0.001182h-56.50722c-139.172973-0.254402-261.375822 40.315268-364.154314 120.72133C441.223218 40.31645 318.96051-0.25322 179.847396 0.001182H123.340176v120.466928H47.737826A47.782721 47.782721 0 0 0 0 168.190972v797.625746a47.782721 47.782721 0 0 0 47.737826 47.722862h464.987377a52.047699 52.047699 0 0 0 62.553014 0h464.987377a47.782721 47.782721 0 0 0 47.737826-47.722862v-797.625746a47.782721 47.782721 0 0 0-47.737826-47.722862z m-132.10957-63.151607v760.587779c-125.30057-0.164613-236.92328 32.683201-332.952631 97.959815v-733.276953c0-0.553699-0.089789-1.107398-0.089789-1.661097s0-1.107398 0.089789-1.661097v-1.496484h0.119718a26.712232 26.712232 0 0 1 5.50706-13.079266 500.558792 500.558792 0 0 1 136.763634-75.856753c58.198246-21.070489 122.307603-31.635663 190.562219-31.515944zM370.409615 88.832447a500.558792 500.558792 0 0 1 136.763634 75.826823 26.712232 26.712232 0 0 1 5.50706 13.079267h0.119719v1.496483c0 0.553699 0.089789 1.107398 0.089789 1.661097s0 1.107398-0.089789 1.661097v733.276953c-95.999422-65.246684-207.652061-98.094499-332.952632-97.929885V57.316503c68.254616-0.119719 132.363972 10.445455 190.562219 31.515944zM57.285391 177.738537h66.054785v697.451136h56.50722c68.284546-0.134684 132.363972 10.475385 190.562219 31.515944a492.926726 492.926726 0 0 1 99.755595 49.608431H57.285391z m973.432638 778.560546h-412.879819a492.926726 492.926726 0 0 1 99.755595-49.608431c58.198246-21.070489 122.277673-31.650628 190.562219-31.515944h56.50722V177.738537h66.054785zM247.114333 647.649345h0.95775v0.119719c57.300356-0.269367 122.322568 16.37153 193.285819 49.473747l0.104753-0.254402a25.859236 25.859236 0 1 0 17.763261-48.515998c-77.398131-35.616309-146.655391-52.795941-211.393271-52.481679h-0.718312a25.874201 25.874201 0 1 0 0 51.733437zM247.114333 472.007067h0.95775v0.119719c57.300356-0.269367 122.322568 16.37153 193.285819 49.473747l0.104753-0.254402a25.859236 25.859236 0 1 0 17.763261-48.515998c-77.398131-35.616309-146.655391-52.795941-211.393271-52.496643h-0.718312a25.874201 25.874201 0 1 0 0 51.733437zM247.114333 294.449291h0.95775v0.104754c57.300356-0.269367 122.322568 16.37153 193.285819 49.473747l0.104753-0.239437a25.859236 25.859236 0 1 0 17.763261-48.530963c-77.398131-35.601344-146.655391-52.780976-211.393271-52.481679h-0.718312a25.859236 25.859236 0 1 0 0 51.718472zM842.93927 595.915908h-0.703348c-64.782774-0.299297-134.010104 16.880335-211.438164 52.496644a25.859236 25.859236 0 1 0 17.76326 48.515997l0.104754 0.254402c70.963251-33.102217 135.985463-49.743114 193.285819-49.473747v-0.119718h0.957749a25.874201 25.874201 0 1 0 0-51.733438zM638.699191 523.26163a25.649729 25.649729 0 0 0 9.891756-1.975358l0.104754 0.254402c70.963251-33.102217 135.985463-49.743114 193.285819-49.473747v-0.119719h0.95775a25.874201 25.874201 0 1 0 0-51.733437h-0.703348c-64.782774-0.239437-134.010104 16.970124-211.438164 52.556503a25.859236 25.859236 0 0 0 7.871503 50.491356zM638.699191 345.703854a25.919096 25.919096 0 0 0 9.891756-1.960394l0.104754 0.239437c70.963251-33.102217 135.985463-49.743114 193.285819-49.473747v-0.104754h0.95775a25.859236 25.859236 0 1 0 0-51.718472h-0.703348c-64.812704-0.299297-134.010104 16.880335-211.408235 52.481679a25.859236 25.859236 0 0 0 7.871504 50.491356z" /></svg>
