<?xml version="1.0" standalone="no"?><!DOCTYPE svg PUBLIC "-//W3C//DTD SVG 1.1//EN" "http://www.w3.org/Graphics/SVG/1.1/DTD/svg11.dtd"><svg class="icon" width="200px" height="200.00px" viewBox="0 0 1024 1024" version="1.1" xmlns="http://www.w3.org/2000/svg"><path fill="#ffffff" d="M51.2 998.4c0-14.13888 11.48672-25.6 25.61024-25.6h870.37952c14.144 0 25.61024 11.45856 25.61024 25.6 0 14.13888-11.48672 25.6-25.61024 25.6H76.81024C62.6688 1024 51.2 1012.54144 51.2 998.4z m230.4-128c0-14.13888 11.44832-25.6 25.59744-25.6H716.8c14.13888 0 25.59744 11.45856 25.59744 25.6 0 14.13888-11.44832 25.6-25.59744 25.6H307.2c-14.13888 0-25.59744-11.45856-25.59744-25.6zM0 51.21024C0 22.92736 22.94528 0 51.21792 0h921.56416C1001.07008 0 1024 22.93248 1024 51.21024v665.57952c0 28.28288-22.94528 51.21024-51.21792 51.21024H51.21792C22.92992 768 0 745.06752 0 716.78976V51.21024z m51.2 38.40768v588.76416C51.2 699.59424 68.38784 716.8 89.58976 716.8h844.82048c21.20704 0 38.38976-17.20064 38.38976-38.41792V89.61792C972.8 68.40576 955.61216 51.2 934.41024 51.2H89.58976C68.38272 51.2 51.2 68.40064 51.2 89.61792zM378.88 245.0432l-99.59936 264h-67.2L111.28064 245.04064H176.0768l62.4 184.79872a335.72608 335.72608 0 0 0 8.39936 26.40128c0-0.80128 0.80128-2.80064 2.40128-6.00064 1.6-4.00128 3.59936-10.80064 6.00064-20.40064l58.80064-184.79872H378.88z m254.4 264h-61.19936l-104.39936-165.60128-14.4-24c0.79872 11.2 1.19808 25.99936 1.19808 44.40064v145.20064H398.08V245.04064h64.80128L563.68128 407.04c0.79872 1.6 1.9968 3.59936 3.59936 6.00064 5.59872 8.79872 9.19808 15.59808 10.80064 20.40064v-1.2032c-0.80128-8.79872-1.2032-21.99808-1.2032-39.59808V245.04064h56.40192v264z m271.20128-187.2l-57.6 13.19936C838.87872 307.84 820.48 293.44 791.68 291.84c-40.80128 2.40128-62.4 30.79936-64.80128 85.19936 1.60256 55.20128 23.20128 84.40064 64.80128 87.60064 32.80128-0.80128 51.99872-20.40064 57.6-58.80064l57.6 17.99936c-13.60128 60.00128-51.99872 90.00192-115.2 90.00192-81.6-4.00128-124.40064-49.6-128.39936-136.80128 3.99872-85.59872 46.7968-130.79808 128.39936-135.60064 57.6 1.60256 95.19872 28.40064 112.80128 80.40192z"  /></svg>