<?xml version="1.0" standalone="no"?><!DOCTYPE svg PUBLIC "-//W3C//DTD SVG 1.1//EN" "http://www.w3.org/Graphics/SVG/1.1/DTD/svg11.dtd"><svg class="icon" width="200px" height="200.00px" viewBox="0 0 1024 1024" version="1.1" xmlns="http://www.w3.org/2000/svg"><path fill="#000000" d="M960 992H576c-19.2 0-32-12.8-32-32V576c0-19.2 12.8-32 32-32h384c19.2 0 32 12.8 32 32v384c0 19.2-12.8 32-32 32z m-352-64h320v-320h-320v320z m-160 64H64c-19.2 0-32-12.8-32-32V576c0-19.2 12.8-32 32-32h384c19.2 0 32 12.8 32 32v384c0 19.2-12.8 32-32 32z m-352-64h320v-320h-320v320z m864-448H576c-19.2 0-32-12.8-32-32V64c0-19.2 12.8-32 32-32h256c6.4 0 19.2 6.4 25.6 6.4l128 128c6.4 6.4 6.4 12.8 6.4 25.6v256c0 19.2-12.8 32-32 32z m-352-64h320V204.8l-108.8-108.8H608v320zM448 480H64C44.8 480 32 467.2 32 448V64C32 44.8 44.8 32 64 32h384c19.2 0 32 12.8 32 32v384c0 19.2-12.8 32-32 32z m-352-64h320v-320h-320v320z"  /></svg>