<?xml version="1.0" standalone="no"?><!DOCTYPE svg PUBLIC "-//W3C//DTD SVG 1.1//EN" "http://www.w3.org/Graphics/SVG/1.1/DTD/svg11.dtd"><svg class="icon" width="200px" height="200.00px" viewBox="0 0 1024 1024" version="1.1" xmlns="http://www.w3.org/2000/svg"><path fill="#000000" d="M412.224 511.904c-47.712-24.512-94.08-36.96-137.888-36.96-5.952 0-11.936 0.192-17.952 0.704-55.872 4.608-106.912 19.36-139.744 30.816-8.704 3.2-17.632 6.56-26.816 10.304L0 828.192c61.696-22.848 116.288-33.952 166.272-33.952 80.832 0 139.52 30.208 188 61.312 22.976-77.92 78.048-266.08 94.496-322.336C436.8 525.952 424.672 518.656 412.224 511.904zM528.352 591.072l-90.432 314.144c26.848 15.36 117.088 64.064 186.208 64.064 55.808 0 118.24-14.304 190.848-43.808l86.368-301.984c-58.624 18.912-114.88 28.512-167.456 28.512C637.888 652.032 570.72 620.928 528.352 591.072zM292.832 368.8c77.12 0.8 134.144 30.208 181.408 60.512l92.736-317.344c-19.552-11.2-70.816-39.104-107.872-48.608-24.384-5.696-50.016-8.608-77.216-8.608-51.808 0.96-108.384 13.952-172.896 39.808l-88.448 310.592c64.8-24.448 120.64-36.352 172.096-36.352C292.736 368.8 292.832 368.8 292.832 368.8zM1024 198.112c-58.816 22.848-116.192 34.464-171.04 34.464-91.68 0-159.296-31.808-203.104-62.368L557.92 488.448c61.76 39.712 128.288 59.872 198.112 59.872 56.96 0 115.936-13.664 175.456-40.704l-0.192-2.208 3.744-0.896L1024 198.112z" /></svg>